<?xml version="1.0" encoding="utf-8"?>
<svg xmlns="http://www.w3.org/2000/svg" xmlns:xlink="http://www.w3.org/1999/xlink" style="margin: auto; background: none; display: block; shape-rendering: auto;" width="200px" height="200px" viewBox="0 0 100 100" preserveAspectRatio="xMidYMid">
<g transform="translate(50 50)">
<g>
<animateTransform attributeName="transform" type="rotate" values="0;45" keyTimes="0;1" dur="0.49504950495049505s" repeatCount="indefinite"></animateTransform><path d="M28.473672049807696 -5.5 L38.473672049807696 -5.5 L38.473672049807696 5.5 L28.473672049807696 5.5 A29 29 0 0 1 24.023013888226895 16.24483929517487 L24.023013888226895 16.24483929517487 L31.09408170009237 23.315907107040346 L23.31590710704035 31.09408170009237 L16.244839295174874 24.023013888226895 A29 29 0 0 1 5.500000000000002 28.473672049807696 L5.500000000000002 28.473672049807696 L5.500000000000003 38.473672049807696 L-5.499999999999998 38.473672049807696 L-5.499999999999999 28.473672049807696 A29 29 0 0 1 -16.24483929517487 24.023013888226895 L-16.24483929517487 24.023013888226895 L-23.315907107040346 31.09408170009237 L-31.09408170009237 23.31590710704035 L-24.023013888226895 16.244839295174874 A29 29 0 0 1 -28.473672049807696 5.5000000000000036 L-28.473672049807696 5.5000000000000036 L-38.473672049807696 5.500000000000004 L-38.473672049807696 -5.4999999999999964 L-28.473672049807696 -5.499999999999997 A29 29 0 0 1 -24.0230138882269 -16.244839295174867 L-24.0230138882269 -16.244839295174867 L-31.094081700092378 -23.31590710704034 L-23.315907107040367 -31.094081700092357 L-16.244839295174888 -24.023013888226885 A29 29 0 0 1 -5.499999999999993 -28.4736720498077 L-5.499999999999993 -28.4736720498077 L-5.499999999999995 -38.4736720498077 L5.499999999999981 -38.4736720498077 L5.499999999999983 -28.4736720498077 A29 29 0 0 1 16.244839295174877 -24.02301388822689 L16.244839295174877 -24.02301388822689 L23.315907107040353 -31.09408170009237 L31.09408170009236 -23.315907107040367 L24.023013888226885 -16.244839295174888 A29 29 0 0 1 28.473672049807696 -5.499999999999995 M0 -24A24 24 0 1 0 0 24 A24 24 0 1 0 0 -24" fill="#774023"></path></g></g>
<!-- [ldio] generated by https://loading.io/ --></svg>